<svg width="50" height="50" xmlns="http://www.w3.org/2000/svg">
 <g>
  <title>background</title>
  <rect x="-1" y="-1" width="52" height="52" id="canvas_background" fill="none"/>
 </g>

 <g>
  <title>Layer 1</title>
  <path stroke="null" fill="#333333" d="m36.163213,25.014475c0,0.690639 -0.560038,1.172562 -1.250612,1.172562l-8.728047,0l0,8.728875c0,0.690639 -0.482077,1.25053 -1.172451,1.25053c-0.690562,0 -1.172439,-0.559892 -1.172439,-1.25053l0,-8.728875l-8.728447,0c-0.690761,0 -1.2506,-0.481923 -1.2506,-1.172562s0.560038,-1.17255 1.2506,-1.17255l8.728447,0l0,-8.729463c0,-0.690639 0.481877,-1.25073 1.172439,-1.25073c0.690373,0 1.172451,0.560091 1.172451,1.25073l0,8.729463l8.728047,0c0.690573,0 1.250612,0.481923 1.250612,1.17255zm13.861005,0c0,-13.793136 -11.220275,-25.014475 -25.012115,-25.014475c-13.791828,0 -25.012103,11.221339 -25.012103,25.014475c0,13.793148 11.220275,25.014487 25.012103,25.014487c13.79184,0 25.012115,-11.221339 25.012115,-25.014487zm-2.501211,0c0,12.413634 -10.098446,22.513038 -22.510892,22.513038c-12.412657,0 -22.510903,-10.099404 -22.510903,-22.513038c0,-12.413822 10.098246,-22.513026 22.510903,-22.513026c12.412445,0 22.510892,10.099204 22.510892,22.513026z" id="svg_1"/>
 </g>
</svg>